<svg width="820" height="130" viewBox="0 0 820 130" fill="none" xmlns="http://www.w3.org/2000/svg">
<path d="M66.1466 129.562C102.679 129.562 132.294 100.558 132.294 64.7807C132.294 29.0034 102.679 0 66.1466 0C29.615 0 0 29.0034 0 64.7807C0 100.558 29.615 129.562 66.1466 129.562Z" fill="black"/>
<path d="M84.4389 2.51994L49.7683 52.4629L47.129 56.2496L44.4893 52.4629L34.4591 37.8961H21.6573L31.7008 52.4629L40.7412 65.4913L33.2053 76.2968L13.7651 104.344C15.9756 107.118 18.4119 109.711 21.0503 112.099L46.0203 76.2968L47.1024 74.7458L48.1716 76.2968L59.7722 93.0994H92.3705C96.0278 93.1006 99.5853 91.9287 102.498 89.762C105.41 87.5957 107.519 84.5546 108.499 81.1036C109.479 77.6531 109.278 73.9824 107.927 70.6542C106.575 67.3256 104.147 64.5228 101.015 62.6735C102.54 60.1882 103.363 57.3504 103.4 54.4511C103.437 51.5518 102.687 48.695 101.226 46.1726C99.765 43.6506 97.6462 41.5538 95.0859 40.0975C92.5261 38.6409 89.6168 37.8768 86.6559 37.8832H72.7589L94.8517 6.35873C91.4956 4.7978 88.0126 3.51375 84.4389 2.51994ZM86.6426 48.2881C88.2705 48.2881 89.8315 48.9213 90.9822 50.0483C92.1329 51.1753 92.7799 52.7042 92.7799 54.298C92.7799 55.8923 92.1329 57.4207 90.9822 58.5482C89.8315 59.6752 88.2705 60.3084 86.6426 60.3084H62.887L59.218 65.5687L62.7813 70.7391H92.3572C93.9851 70.7391 95.546 71.3723 96.6968 72.4993C97.8475 73.6263 98.4944 75.1552 98.4944 76.749C98.4944 78.3432 97.8475 79.8717 96.6968 80.9992C95.546 82.1262 93.9851 82.7594 92.3572 82.7594H65.3944L60.9599 76.2968L57.0929 70.7391L53.5168 65.5687L57.1329 60.3987L62.5966 52.5532L65.5 48.3784H86.6164L86.6426 48.2881Z" fill="white"/>
<path d="M240.686 35.3884H226.287L215.122 53.5871L204.089 35.3884H189.321L206.57 63.4232L187.869 94.1719H202.492L215.056 72.7681L227.977 94.1719H242.494L223.477 63.1516L240.686 35.3884ZM314.593 63.1C316.286 61.564 317.615 59.684 318.488 57.5922C319.362 55.5 319.757 53.2463 319.648 50.989C319.516 40.4034 311.004 35.3108 299.535 35.3884H274.987V94.1719H302.346C313.749 94.2884 322.221 87.8774 322.367 77.5761C322.483 74.7088 321.827 71.8615 320.465 69.3209C319.103 66.7797 317.083 64.6347 314.606 63.1H314.593ZM288.066 46.2974H298.624C304.405 46.4651 307.321 47.5896 307.598 52.3203C307.4 57.1545 303.428 58.9896 298.36 59.0803H288.172L288.066 46.2974ZM307.638 81.1951C306.213 82.4877 303.837 83.3277 300.036 83.3277H288.066V69.1103H300.274C305.804 69.2135 309.512 71.1522 309.657 76.4774C309.691 77.3535 309.528 78.2259 309.182 79.0339C308.835 79.8422 308.313 80.5665 307.651 81.1565L307.638 81.1951ZM377.876 35.4272L351.679 94.1719H365.404L369.364 84.9565H393.594L397.448 94.1719H411.491L385.28 35.3884L377.876 35.4272ZM374.022 73.6467L381.439 56.0816L388.751 73.6467H374.022ZM581.607 35.3884H565.482L547.439 58.1883V35.3884H534.334V94.1719H547.426V68.3216L569.018 94.1719H585.355L559.345 63.1516L581.607 35.3884ZM617.244 36.681V94.1719H630.27V35.3884H617.244V36.681ZM708.808 69.7693L677.531 35.3884H669.967V94.1719H683.06V59.3387L714.64 94.1719H721.913V35.3884H708.808V69.7693ZM483.129 69.7693L451.848 35.3884H444.272V94.1719H457.381V59.3387L488.962 94.1719H496.221V35.3884H483.129V69.7693ZM794.713 60.0239L785.752 71.2687H806.287C805.322 74.8753 803.184 78.0758 800.197 80.3831C797.205 82.6903 793.528 83.9784 789.725 84.0516C787.096 84.1182 784.479 83.6688 782.033 82.7303C779.587 81.7913 777.353 80.3818 775.472 78.5854C773.588 76.7886 772.094 74.6406 771.071 72.2688C770.047 69.8966 769.523 67.348 769.523 64.7737C769.523 62.1993 770.047 59.6507 771.071 57.2789C772.094 54.9067 773.588 52.7592 775.472 50.9623C777.353 49.1655 779.587 47.7564 782.033 46.8174C784.479 45.8785 787.096 45.4292 789.725 45.4957C794.876 45.5369 799.822 47.4856 803.567 50.9503L804.623 51.9067L812.54 41.9932L811.513 41.1918C805.335 36.2663 797.609 33.5775 789.642 33.5789C771.603 33.5789 756.755 47.06 756.651 64.7025C756.543 82.3455 771.499 96.0203 789.642 95.9687C806.999 95.9687 820.079 81.6474 820 64.7803V60.0239H794.713Z" fill="black"/>
</svg>
